<svg width="126" height="25" viewBox="0 0 126 25" fill="none" xmlns="http://www.w3.org/2000/svg">
<g clip-path="url(#clip0_199_325)">
<path fill-rule="evenodd" clip-rule="evenodd" d="M10.2584 4.42675C8.79036 4.42675 8.36436 5.08005 8.36436 6.51635V8.89975H12.2834L11.8914 12.7536H8.36436V24.4437H3.66236V12.7536H0.495361V8.89975H3.66236V6.58115C3.66236 2.69665 5.22936 0.639648 9.60536 0.639648C10.5524 0.639648 11.6624 0.704448 12.3484 0.802048V4.42675" fill="url(#paint0_linear_199_325)"/>
<path fill-rule="evenodd" clip-rule="evenodd" d="M17.3116 17.2262C17.3116 19.5448 18.1616 21.0785 20.3486 21.0785C22.2756 21.0785 23.2556 19.6747 23.2556 17.4555V15.8875C23.2556 13.6663 22.2756 12.2625 20.3486 12.2625C18.1616 12.2625 17.3116 13.7982 17.3116 16.1165V17.2262ZM12.6096 16.1817C12.6096 11.8387 14.6666 8.57275 18.9776 8.57275C21.3286 8.57275 22.7646 9.78185 23.4506 11.2828V8.89945H27.9576V24.4418H23.4506V22.0927C22.7966 23.5939 21.3286 24.7684 18.9776 24.7684C14.6666 24.7684 12.6096 21.5046 12.6096 17.1615V16.1817Z" fill="url(#paint1_linear_199_325)"/>
<path fill-rule="evenodd" clip-rule="evenodd" d="M37.7505 8.57275C39.5785 8.57275 41.3105 8.96425 42.2565 9.61775L41.2115 12.9484C40.4935 12.5893 39.3185 12.2304 38.0775 12.2304C35.5295 12.2304 34.4195 13.699 34.4195 16.2143V17.127C34.4195 19.6423 35.5295 21.1109 38.0775 21.1109C39.3185 21.1109 40.4935 20.752 41.2115 20.3928L42.2565 23.7238C41.3105 24.3767 39.5785 24.7684 37.7505 24.7684C32.2335 24.7684 29.7185 21.7966 29.7185 17.0296V16.3116C29.7185 11.5446 32.2335 8.57275 37.7505 8.57275Z" fill="url(#paint2_linear_199_325)"/>
<path fill-rule="evenodd" clip-rule="evenodd" d="M47.5785 15.2345H53.2605V14.8431C53.2605 13.1452 52.5755 11.8065 50.5185 11.8065C48.3945 11.8065 47.5785 13.1452 47.5785 15.2345ZM42.8765 17.2589V15.8876C42.8765 11.4798 45.3905 8.57275 50.5185 8.57275C55.3505 8.57275 57.4715 11.5121 57.4715 15.8228V18.3035H47.5785C47.6765 20.4274 48.6235 21.3727 51.2365 21.3727C52.9995 21.3727 54.8615 21.0135 56.2325 20.4274L57.0805 23.6587C55.8415 24.3119 53.2935 24.8009 51.0395 24.8009C45.0975 24.8009 42.8765 21.8312 42.8765 17.2589Z" fill="url(#paint3_linear_199_325)"/>
<path fill-rule="evenodd" clip-rule="evenodd" d="M70.2064 16.0821C70.2064 13.8935 69.3564 12.2624 67.1054 12.2624C65.1784 12.2624 64.1334 13.6337 64.1334 15.8529V17.4859C64.1334 19.7071 65.1784 21.0784 67.1054 21.0784C69.3564 21.0784 70.2064 19.4453 70.2064 17.2567V16.0821ZM74.9084 17.1595C74.9084 21.5026 72.8194 24.7684 68.5084 24.7684C66.1574 24.7684 64.5254 23.5919 63.8714 22.0907V24.4418H59.4314V1.09392L64.1334 0.669922V11.0538C64.8194 9.68262 66.3204 8.57282 68.5084 8.57282C72.8194 8.57282 74.9084 11.837 74.9084 16.1797V17.1595Z" fill="url(#paint4_linear_199_325)"/>
<path fill-rule="evenodd" clip-rule="evenodd" d="M87.2506 15.9523C87.2506 13.8956 86.4006 12.2625 84.2136 12.2625C82.0246 12.2625 81.1766 13.8956 81.1766 15.9523V17.3887C81.1766 19.4454 82.0246 21.0785 84.2136 21.0785C86.4006 21.0785 87.2506 19.4454 87.2506 17.3887V15.9523ZM76.4746 17.0622V16.2791C76.4746 11.8061 79.0206 8.57275 84.2136 8.57275C89.4046 8.57275 91.9526 11.8061 91.9526 16.2791V17.0622C91.9526 21.5368 89.4046 24.7684 84.2136 24.7684C79.0206 24.7684 76.4746 21.5368 76.4746 17.0622Z" fill="url(#paint5_linear_199_325)"/>
<path fill-rule="evenodd" clip-rule="evenodd" d="M104.294 15.9523C104.294 13.8956 103.444 12.2625 101.258 12.2625C99.0686 12.2625 98.2206 13.8956 98.2206 15.9523V17.3887C98.2206 19.4454 99.0686 21.0785 101.258 21.0785C103.444 21.0785 104.294 19.4454 104.294 17.3887V15.9523ZM93.5186 17.0622V16.2791C93.5186 11.8061 96.0646 8.57275 101.258 8.57275C106.449 8.57275 108.996 11.8061 108.996 16.2791V17.0622C108.996 21.5368 106.449 24.7684 101.258 24.7684C96.0646 24.7684 93.5186 21.5368 93.5186 17.0622Z" fill="url(#paint6_linear_199_325)"/>
<path fill-rule="evenodd" clip-rule="evenodd" d="M115.458 16.3113L120.095 8.89922H125.091L120.225 16.5731L125.286 24.4415H120.292L115.458 16.8347V24.4415H110.756V1.09562L115.458 0.669922" fill="url(#paint7_linear_199_325)"/>
</g>
<defs>
<linearGradient id="paint0_linear_199_325" x1="-3.1683" y1="-2.83177" x2="14.6453" y2="-2.50052" gradientUnits="userSpaceOnUse">
<stop stop-color="#4ADE80"/>
<stop offset="1" stop-color="#6EE7B7"/>
</linearGradient>
<linearGradient id="paint1_linear_199_325" x1="7.86569" y1="6.21089" x2="30.911" y2="7.02646" gradientUnits="userSpaceOnUse">
<stop stop-color="#4ADE80"/>
<stop offset="1" stop-color="#6EE7B7"/>
</linearGradient>
<linearGradient id="paint2_linear_199_325" x1="25.8431" y1="6.21089" x2="44.677" y2="6.75539" gradientUnits="userSpaceOnUse">
<stop stop-color="#4ADE80"/>
<stop offset="1" stop-color="#6EE7B7"/>
</linearGradient>
<linearGradient id="paint3_linear_199_325" x1="38.3653" y1="6.20615" x2="60.2826" y2="6.94227" gradientUnits="userSpaceOnUse">
<stop stop-color="#4ADE80"/>
<stop offset="1" stop-color="#6EE7B7"/>
</linearGradient>
<linearGradient id="paint4_linear_199_325" x1="54.6476" y1="-2.84443" x2="77.9023" y2="-2.28669" gradientUnits="userSpaceOnUse">
<stop stop-color="#4ADE80"/>
<stop offset="1" stop-color="#6EE7B7"/>
</linearGradient>
<linearGradient id="paint5_linear_199_325" x1="71.6905" y1="6.21089" x2="94.9305" y2="7.04032" gradientUnits="userSpaceOnUse">
<stop stop-color="#4ADE80"/>
<stop offset="1" stop-color="#6EE7B7"/>
</linearGradient>
<linearGradient id="paint6_linear_199_325" x1="88.7346" y1="6.21089" x2="111.974" y2="7.04026" gradientUnits="userSpaceOnUse">
<stop stop-color="#4ADE80"/>
<stop offset="1" stop-color="#6EE7B7"/>
</linearGradient>
<linearGradient id="paint7_linear_199_325" x1="106.265" y1="-2.79676" x2="128.098" y2="-2.29839" gradientUnits="userSpaceOnUse">
<stop stop-color="#4ADE80"/>
<stop offset="1" stop-color="#6EE7B7"/>
</linearGradient>
<clipPath id="clip0_199_325">
<rect width="126" height="25" fill="white"/>
</clipPath>
</defs>
</svg>
