<svg width="13" height="13" viewBox="0 0 13 13" fill="none" xmlns="http://www.w3.org/2000/svg">
<g clip-path="url(#clip0_199_495)">
<path d="M9.63731 2.31646C9.38746 2.06035 9.08422 1.93226 8.72739 1.93226C8.37073 1.93226 8.06746 2.06028 7.81769 2.31646C7.56801 2.57257 7.44317 2.88357 7.44317 3.24958C7.44317 3.48743 7.50097 3.70814 7.61693 3.91167C7.73287 4.11522 7.88882 4.27422 8.0852 4.38852C8.0852 4.62636 8.06634 4.83571 8.0285 5.01636C7.99049 5.19701 7.92812 5.35589 7.84119 5.49321C7.75403 5.63045 7.66391 5.74701 7.57019 5.84311C7.47644 5.93922 7.34488 6.02948 7.17542 6.11415C7.006 6.19877 6.84868 6.26959 6.70378 6.32686C6.55889 6.38393 6.36371 6.45139 6.11843 6.52918C5.6724 6.67105 5.32907 6.8013 5.08823 6.92031V3.51019C5.28446 3.39592 5.44056 3.23694 5.55649 3.03339C5.6724 2.82984 5.73037 2.6091 5.73037 2.37126C5.73037 2.00537 5.60556 1.69429 5.35578 1.43818C5.1061 1.18209 4.80288 1.05396 4.44606 1.05396C4.0892 1.05396 3.78598 1.182 3.53621 1.43818C3.28653 1.69429 3.16162 2.00537 3.16162 2.37126C3.16162 2.6091 3.21959 2.82984 3.3355 3.03339C3.45144 3.23694 3.60751 3.39592 3.80377 3.51019V9.13653C3.60751 9.25076 3.45144 9.4099 3.3355 9.61338C3.21959 9.81701 3.16162 10.0377 3.16162 10.2755C3.16162 10.6414 3.28644 10.9525 3.53621 11.2085C3.78598 11.4646 4.08927 11.5928 4.44606 11.5928C4.80281 11.5928 5.1061 11.4646 5.35578 11.2085C5.60549 10.9525 5.73037 10.6414 5.73037 10.2755C5.73037 10.0377 5.6724 9.81701 5.55649 9.61338C5.44053 9.4099 5.28446 9.25076 5.08823 9.13653V8.95814C5.08823 8.64258 5.18075 8.41393 5.36581 8.27217C5.55087 8.13021 5.92883 7.96787 6.49975 7.78496C7.1019 7.58824 7.55463 7.40288 7.85787 7.229C8.8568 6.64822 9.36078 5.70132 9.36966 4.38849C9.56603 4.27422 9.72199 4.1152 9.83792 3.91165C9.95379 3.70809 10.0118 3.48741 10.0118 3.24956C10.0119 2.88365 9.88701 2.57265 9.63731 2.31646ZM4.90104 10.7422C4.7761 10.8704 4.62448 10.9344 4.44615 10.9344C4.2677 10.9344 4.11608 10.8704 3.99119 10.7422C3.86638 10.6143 3.80388 10.4587 3.80388 10.2758C3.80388 10.0927 3.8663 9.93726 3.99119 9.80912C4.11608 9.68108 4.2677 9.61701 4.44615 9.61701C4.62448 9.61701 4.77613 9.68115 4.90104 9.80912C5.02592 9.93726 5.08832 10.0927 5.08832 10.2758C5.0883 10.4587 5.02592 10.6142 4.90104 10.7422ZM4.90104 2.83791C4.7761 2.966 4.62448 3.03003 4.44615 3.03003C4.2677 3.03003 4.11608 2.966 3.99119 2.83791C3.86638 2.70982 3.80388 2.55438 3.80388 2.37135C3.80388 2.18837 3.8663 2.03281 3.99119 1.90484C4.11608 1.77677 4.2677 1.71273 4.44615 1.71273C4.62448 1.71273 4.77613 1.7768 4.90104 1.90484C5.02592 2.03281 5.08832 2.18837 5.08832 2.37135C5.0883 2.55438 5.02592 2.70989 4.90104 2.83791ZM9.18235 3.71622C9.05751 3.84424 8.90596 3.90831 8.72756 3.90831C8.54906 3.90831 8.39741 3.84424 8.27267 3.71622C8.14783 3.5882 8.08536 3.43266 8.08536 3.24966C8.08536 3.06667 8.14783 2.91121 8.27267 2.7831C8.39751 2.65498 8.54906 2.59101 8.72756 2.59101C8.90596 2.59101 9.05751 2.655 9.18235 2.7831C9.30719 2.91109 9.36966 3.06665 9.36966 3.24966C9.36966 3.43264 9.30728 3.5882 9.18235 3.71622Z" fill="white" fill-opacity="0.8"/>
</g>
<defs>
<clipPath id="clip0_199_495">
<rect width="12.6466" height="12.6466" fill="white"/>
</clipPath>
</defs>
</svg>
