<svg width="13" height="13" viewBox="0 0 13 13" fill="none" xmlns="http://www.w3.org/2000/svg">
<path d="M10.0858 6.8186C10.1068 6.66052 10.1174 6.49717 10.1174 6.32328C10.1174 6.15466 10.1068 5.98604 10.0805 5.82795L11.1502 4.99539C11.245 4.92162 11.2714 4.77934 11.2134 4.67395L10.2017 2.92451C10.1385 2.80858 10.0067 2.7717 9.89079 2.80858L8.6314 3.31445C8.36793 3.11421 8.08865 2.94559 7.77776 2.81912L7.58806 1.48069C7.56698 1.35423 7.4616 1.26465 7.33513 1.26465H5.31168C5.18521 1.26465 5.08509 1.35423 5.06402 1.48069L4.87432 2.81912C4.56342 2.94559 4.27887 3.11948 4.02067 3.31445L2.76129 2.80858C2.64536 2.76643 2.51362 2.80858 2.45039 2.92451L1.44393 4.67395C1.3807 4.78461 1.40178 4.92162 1.50717 4.99539L2.57686 5.82795C2.55051 5.98604 2.52943 6.15993 2.52943 6.32328C2.52943 6.48663 2.53997 6.66052 2.56632 6.8186L1.49663 7.65117C1.40178 7.72494 1.37543 7.86721 1.43339 7.9726L2.44512 9.72205C2.50835 9.83797 2.64009 9.87486 2.75602 9.83797L4.0154 9.33211C4.27887 9.53235 4.55815 9.70097 4.86905 9.82743L5.05875 11.1659C5.08509 11.2923 5.18521 11.3819 5.31168 11.3819H7.33513C7.4616 11.3819 7.56698 11.2923 7.58279 11.1659L7.77249 9.82743C8.08339 9.70097 8.36793 9.53235 8.62613 9.33211L9.88552 9.83797C10.0015 9.88013 10.1332 9.83797 10.1964 9.72205L11.2081 7.9726C11.2714 7.85668 11.245 7.72494 11.1449 7.65117L10.0858 6.8186ZM6.3234 8.22027C5.28006 8.22027 4.42642 7.36662 4.42642 6.32328C4.42642 5.27994 5.28006 4.42629 6.3234 4.42629C7.36675 4.42629 8.22039 5.27994 8.22039 6.32328C8.22039 7.36662 7.36675 8.22027 6.3234 8.22027Z" fill="white" fill-opacity="0.8"/>
</svg>
