<svg width="38" height="44" viewBox="0 0 38 44" fill="none" xmlns="http://www.w3.org/2000/svg">
<path d="M33.4943 11.1666C34.0203 7.73747 33.4943 5.4514 31.6535 3.34118C29.6374 0.967184 25.9559 0 21.2224 0H7.63567C6.67145 0 5.88254 0.703407 5.70723 1.67059L0.00955793 37.7202C-0.0780985 38.4236 0.44784 39.0391 1.14909 39.0391H9.56411L8.95051 42.732C8.86286 43.3474 9.30114 43.875 10.0024 43.875H17.1026C17.9791 43.875 18.6804 43.2595 18.768 42.4682L20.2582 33.148C20.3459 32.3567 21.1348 31.7412 21.9237 31.7412H22.9755C29.8127 31.7412 35.2474 28.9276 36.8253 20.8384C37.4389 17.4972 37.1759 14.5957 35.4228 12.6613C34.8968 12.0458 34.2832 11.6062 33.4943 11.1666" fill="#E5E7EB"/>
<path d="M33.4943 11.1666C34.0203 7.73747 33.4943 5.4514 31.6535 3.34118C29.6374 0.967184 25.9559 0 21.2224 0H7.63567C6.67145 0 5.88254 0.703407 5.70723 1.67059L0.00955793 37.7202C-0.0780985 38.4236 0.44784 39.0391 1.14909 39.0391H9.56411L11.5802 26.0261C11.7555 25.0589 12.5444 24.3555 13.5086 24.3555H17.5408C25.4299 24.3555 31.5659 21.1901 33.319 11.87C33.4067 11.6941 33.4067 11.4304 33.4943 11.1666Z" fill="#9CA3AF"/>
<path d="M13.9469 11.2545C14.0346 10.639 14.8235 9.84769 15.6124 9.84769H26.3065C27.5337 9.84769 28.7609 9.93562 29.8127 10.1115C30.777 10.2873 32.5301 10.727 33.4067 11.2545C33.9326 7.8254 33.4067 5.53933 31.5659 3.42911C29.6374 0.967184 25.9559 0 21.2224 0H7.63567C6.67145 0 5.88254 0.703407 5.70723 1.67059L0.00955793 37.7202C-0.0780985 38.4236 0.44784 39.0391 1.14909 39.0391H9.56411L13.9469 11.2545V11.2545Z" fill="#4B5563"/>
</svg>
