<svg width="50" height="50" viewBox="0 0 50 50" fill="none" xmlns="http://www.w3.org/2000/svg">
<path d="M12.9883 42.9692C12.3887 42.9681 11.7997 42.8109 11.2793 42.5131C10.1074 41.849 9.37891 40.56 9.37891 39.1606V10.8403C9.37891 9.43694 10.1074 8.15178 11.2793 7.48772C11.8121 7.18151 12.4174 7.02404 13.0319 7.03177C13.6464 7.0395 14.2475 7.21215 14.7725 7.53167L38.9766 22.0199C39.481 22.3362 39.8968 22.7755 40.1851 23.2964C40.4733 23.8174 40.6246 24.4031 40.6246 24.9985C40.6246 25.5939 40.4733 26.1795 40.1851 26.7005C39.8968 27.2215 39.481 27.6607 38.9766 27.977L14.7686 42.4692C14.2313 42.7939 13.616 42.9668 12.9883 42.9692Z" fill="white"/>
</svg>
