<svg width="52" height="52" viewBox="0 0 52 52" fill="none" xmlns="http://www.w3.org/2000/svg">
<path d="M30.3532 25.9608C30.3532 23.6299 28.4043 21.7401 26 21.7401C23.5959 21.7401 21.6468 23.6299 21.6468 25.9608C21.6468 28.292 23.5959 30.1818 26 30.1818C28.4043 30.1818 30.3532 28.292 30.3532 25.9608Z" fill="#9CA3AF"/>
<path fill-rule="evenodd" clip-rule="evenodd" d="M40.1381 18.1248C41.0574 14.5028 42.213 7.78616 38.1394 5.50901C34.0849 3.24179 28.8087 7.58619 26.0227 10.1939C23.2447 7.61218 17.8203 3.28635 13.7501 5.57072C9.6972 7.84554 10.947 14.4508 11.8867 18.0955C8.106 19.1367 1.625 21.3792 1.625 25.9608C1.625 30.5295 8.09926 32.9693 11.8576 34.0095C10.9144 37.6743 9.72718 44.1853 13.7853 46.4549C17.8706 48.7389 23.2782 44.5161 26.09 41.8798C28.8939 44.5029 34.1195 48.7534 38.1748 46.4773C42.2429 44.194 41.1833 37.5674 40.2436 33.9015C43.8868 32.8591 50.375 30.4725 50.375 25.9608C50.375 21.4231 43.8593 19.1624 40.1381 18.1248ZM39.6764 31.9588C39.0593 30.0651 38.2266 28.0512 37.2078 25.9709C38.1802 23.9397 38.9806 21.9518 39.5804 20.0702C42.3083 20.837 48.2926 22.5896 48.2926 25.9608C48.2926 29.3637 42.55 31.1329 39.6764 31.9588ZM37.1312 44.7298C34.1056 46.4279 29.611 42.3632 27.5402 40.4314C28.9139 38.9747 30.2867 37.2811 31.6265 35.4005C33.9834 35.1978 36.2099 34.8663 38.2291 34.4138C38.8905 37.0068 40.1704 43.0239 37.1312 44.7298ZM14.8259 44.7055C11.7998 43.0138 13.1829 37.2038 13.8768 34.5042C15.8736 34.9324 18.0839 35.2405 20.4464 35.4263C21.795 37.2665 23.2075 38.9579 24.6311 40.4392C22.8723 42.0887 17.8661 46.4051 14.8259 44.7055ZM3.70742 25.9608C3.70742 22.5452 9.65586 20.8054 12.4459 20.0405C13.0561 21.9644 13.8563 23.9759 14.822 26.01C13.8438 28.0745 13.0321 30.118 12.4164 32.0645C9.756 31.3261 3.70742 29.3786 3.70742 25.9608ZM14.7935 7.31825C17.8319 5.61302 22.5464 9.76597 24.5633 11.6352C23.1471 13.1098 21.7476 14.7885 20.4106 16.618C18.1178 16.8241 15.923 17.155 13.9053 17.5982C13.1483 14.6587 11.7584 9.02165 14.7935 7.31825ZM33.1163 18.8128C34.6719 19.0031 36.162 19.2562 37.5614 19.5661C37.1413 20.8716 36.6177 22.2367 36.0011 23.6362C35.1071 21.9916 34.1476 20.3801 33.1163 18.8128ZM26.0233 13.0782C26.9838 14.0871 27.9458 15.2137 28.8921 16.436C26.9726 16.3481 25.0499 16.3476 23.1303 16.4348C24.0775 15.2238 25.0477 14.0988 26.0233 13.0782ZM16.0168 23.6347C15.4103 22.2401 14.8915 20.8689 14.4677 19.5447C15.8587 19.2429 17.342 18.9962 18.8874 18.809C17.8533 20.3729 16.8953 21.9838 16.0168 23.6347ZM18.9318 33.2568C17.3353 33.084 15.8295 32.8499 14.439 32.5565C14.8695 31.2089 15.3998 29.8082 16.0192 28.3836C16.9098 30.0516 17.8823 31.6781 18.9318 33.2568ZM26.0809 38.9862C25.0938 37.9534 24.1094 36.8113 23.1478 35.5827C25.0784 35.6563 27.0126 35.6564 28.9428 35.5729C27.9935 36.8238 27.035 37.9677 26.0809 38.9862ZM36.0209 28.311C36.6725 29.7511 37.2218 31.1442 37.658 32.469C36.2445 32.7817 34.7185 33.0336 33.1105 33.2206C34.1494 31.6237 35.1241 29.9871 36.0209 28.311ZM30.4643 33.4654C27.5115 33.6699 24.54 33.6678 21.5862 33.4821C19.9077 31.1049 18.4136 28.6048 17.1238 26.0094C18.4073 23.4193 19.8906 20.9242 21.5612 18.5507C24.5173 18.334 27.4915 18.3335 30.4475 18.5519C32.1036 20.9253 33.5847 23.414 34.898 25.9807C33.6003 28.5695 32.1092 31.0697 30.4643 33.4654ZM37.0993 7.25822C40.1385 8.95787 38.7856 14.9943 38.1217 17.6192C36.0993 17.1667 33.9029 16.8299 31.6035 16.6207C30.2639 14.7713 28.8759 13.0897 27.4826 11.6342C29.5255 9.72466 34.0894 5.57519 37.0993 7.25822Z" fill="#9CA3AF"/>
</svg>
