<svg width="12" height="10" viewBox="0 0 12 10" fill="none" xmlns="http://www.w3.org/2000/svg">
<path fill-rule="evenodd" clip-rule="evenodd" d="M5.46967 0.192211C5.76256 -0.0640704 6.23744 -0.0640704 6.53033 0.192211L11.0303 4.12971C11.3232 4.38599 11.3232 4.80151 11.0303 5.05779L6.53033 8.99529C6.23744 9.25157 5.76256 9.25157 5.46967 8.99529C5.17678 8.73901 5.17678 8.32349 5.46967 8.06721L9.43934 4.59375L5.46967 1.12029C5.17678 0.864007 5.17678 0.448493 5.46967 0.192211Z" fill="white"/>
<path fill-rule="evenodd" clip-rule="evenodd" d="M0 4.59375C0 4.23131 0.335786 3.9375 0.75 3.9375H9.875C10.2892 3.9375 10.625 4.23131 10.625 4.59375C10.625 4.95619 10.2892 5.25 9.875 5.25H0.75C0.335786 5.25 0 4.95619 0 4.59375Z" fill="white"/>
</svg>
