<svg width="13" height="13" viewBox="0 0 13 13" fill="none" xmlns="http://www.w3.org/2000/svg">
<g clip-path="url(#clip0_199_496)">
<path d="M8.16757 7.37716H7.75129L7.60374 7.23488C8.12014 6.63417 8.43104 5.8543 8.43104 5.00592C8.43104 3.11421 6.89764 1.58081 5.00592 1.58081C3.11421 1.58081 1.58081 3.11421 1.58081 5.00592C1.58081 6.89764 3.11421 8.43104 5.00592 8.43104C5.8543 8.43104 6.63417 8.12014 7.23488 7.60374L7.37716 7.75129V8.16757L10.0119 10.797L10.797 10.0119L8.16757 7.37716ZM5.00592 7.37716C3.69384 7.37716 2.63469 6.31801 2.63469 5.00592C2.63469 3.69384 3.69384 2.63469 5.00592 2.63469C6.31801 2.63469 7.37716 3.69384 7.37716 5.00592C7.37716 6.31801 6.31801 7.37716 5.00592 7.37716Z" fill="white" fill-opacity="0.8"/>
</g>
<defs>
<clipPath id="clip0_199_496">
<rect width="12.6466" height="12.6466" fill="white"/>
</clipPath>
</defs>
</svg>
