<svg width="41" height="41" viewBox="0 0 41 41" fill="none" xmlns="http://www.w3.org/2000/svg">
<path d="M30.1899 1.60539C30.1899 0.341882 28.7752 0.341867 28.1465 0.499805C29.0267 -0.195124 30.0589 -0.0266401 30.4257 0.183945L38.9261 4.35198C39.7361 4.74914 40.2499 5.57549 40.2499 6.48107V33.9008C40.2499 34.8184 39.7224 35.6536 38.896 36.0443L30.8973 39.8265C30.3471 40.0633 29.1525 40.6477 28.1465 39.8264C29.404 40.0633 30.0851 39.1684 30.1899 38.5629V1.60539Z" fill="#9CA3AF"/>
<path d="M28.2486 0.476927C28.9159 0.345057 30.19 0.406211 30.19 1.60529V11.0435L4.41828 30.54C3.96781 30.8807 3.33385 30.8242 2.95016 30.409L0.294015 27.5349C-0.122095 27.0846 -0.0929809 26.3798 0.358834 25.9658L28.1466 0.499707L28.2486 0.476927Z" fill="#9CA3AF"/>
<path d="M30.19 29.2827L4.41828 9.78621C3.96781 9.44543 3.33385 9.50197 2.95017 9.91715L0.294015 12.7913C-0.122095 13.2416 -0.0929809 13.9463 0.358834 14.3604L28.1466 39.8265V39.8265C29.4041 40.0634 30.0852 39.1684 30.19 38.5629V29.2827Z" fill="#9CA3AF"/>
</svg>
