<svg width="54" height="54" viewBox="0 0 54 54" fill="none" xmlns="http://www.w3.org/2000/svg">
<path d="M42.5611 8.4375C38.8749 8.4375 35.8027 10.9486 34.8605 14.7067C33.1619 9.0597 28.8143 8.44185 27.0007 8.44185C25.1875 8.44185 20.8416 9.05969 19.1399 14.7054C18.1973 10.9509 15.1247 8.44185 11.4394 8.44185C6.91727 8.44185 3.375 11.7542 3.375 15.9827C3.375 17.8527 3.82591 19.3456 4.37076 20.9648L10.5109 38.7562C12.5668 44.6566 16.7552 45.5377 19.0686 45.5377C22.6977 45.5377 25.5255 43.6333 27.0002 40.2581C28.4762 43.6484 31.3044 45.5625 34.9315 45.5625C37.2422 45.5625 41.4264 44.6799 43.4928 38.7577C45.6413 32.5453 47.8664 26.3543 49.9238 20.1111C50.2525 19.1145 50.625 17.9849 50.625 16.6005C50.625 11.8707 47.2337 8.4375 42.5611 8.4375ZM45.4716 19.3826L39.2977 37.2345C38.5439 39.3943 37.2903 41.0021 34.9315 41.0021C32.7217 41.0021 31.417 39.7403 30.765 37.5784L27.0498 25.6971H26.9489L23.2361 37.5784C22.5829 39.7407 21.2778 40.9772 19.0685 40.9772C16.7093 40.9772 15.4546 39.3827 14.7021 37.2228L8.57859 19.4791C8.07656 17.987 7.82573 17.0637 7.82573 15.9823C7.82573 14.3362 9.33238 13.0022 11.4394 13.0022C13.1965 13.0022 14.4512 14.1891 14.8529 15.9377L19.0192 30.0906H19.1188L23.3354 16.2495C23.8885 14.244 24.8918 13.0022 27.0007 13.0022C29.1085 13.0022 30.112 14.2419 30.6641 16.2475L34.8808 30.0906H34.9805L39.148 15.9377C39.5491 14.1891 40.8036 12.9979 42.5611 12.9979C44.6682 12.9979 46.1743 14.3368 46.1743 16.6005C46.1743 17.423 45.8217 18.2495 45.4716 19.3826Z" fill="#9CA3AF"/>
</svg>
